<?xml version="1.0" standalone="no"?>
<!DOCTYPE svg PUBLIC "-//W3C//DTD SVG 20010904//EN"
 "http://www.w3.org/TR/2001/REC-SVG-20010904/DTD/svg10.dtd">
<svg version="1.0" xmlns="http://www.w3.org/2000/svg"
 width="600.000000pt" height="174.000000pt" viewBox="0 0 600.000000 174.000000"
 preserveAspectRatio="xMidYMid meet">
<g transform="translate(0.000000,174.000000) scale(0.100000,-0.100000)"
fill="#000000" stroke="none">
<path d="M5454 1663 l-60 -4 11 -94 c6 -52 10 -95 8 -95 -1 0 -35 25 -75 55
-40 30 -76 55 -80 55 -7 0 -58 -85 -58 -98 0 -5 39 -27 86 -49 l85 -40 -85
-38 c-47 -21 -86 -42 -86 -47 0 -5 12 -31 28 -57 l27 -49 80 58 c44 32 81 57
81 57 2 -2 -10 -95 -20 -164 l-5 -33 66 0 65 0 -5 43 c-4 23 -9 68 -13 100
l-7 59 73 -52 c40 -28 77 -53 84 -56 10 -4 66 76 66 94 0 4 -35 22 -78 41 -42
19 -81 37 -85 41 -4 4 30 24 75 45 46 21 85 39 86 41 9 6 -54 104 -64 100 -7
-3 -44 -28 -84 -56 l-73 -52 6 44 c12 89 19 158 16 156 -2 -1 -31 -3 -65 -5z
m30 -54 c-1 -13 -4 -46 -7 -73 -3 -35 0 -57 10 -73 19 -29 22 -29 56 2 15 14
27 23 27 20 0 -3 15 8 33 24 38 37 41 37 62 9 15 -22 14 -24 -6 -41 -12 -10
-29 -15 -36 -13 -8 3 -11 1 -8 -4 5 -9 -6 -14 -26 -12 -3 1 -20 -12 -38 -28
l-32 -30 25 -21 c13 -11 26 -19 29 -18 2 2 11 -2 20 -10 10 -7 17 -10 17 -7 0
4 7 0 16 -8 8 -9 24 -16 34 -16 14 0 18 -6 15 -22 -7 -33 -20 -41 -46 -27 -33
17 -73 49 -63 49 5 1 -6 7 -24 15 -35 15 -57 12 -66 -11 -6 -15 1 -107 10
-136 3 -12 0 -18 -10 -18 -8 0 -21 -3 -29 -6 -12 -4 -14 6 -12 60 2 36 6 70 9
74 7 13 -18 45 -37 48 -9 1 -21 -4 -28 -12 -6 -8 -18 -14 -26 -14 -8 0 -11 -5
-7 -12 4 -7 3 -8 -4 -4 -10 6 -30 -7 -66 -40 -9 -9 -16 -5 -28 17 -16 28 -13
34 22 44 27 7 109 49 105 53 -2 3 0 10 5 17 13 16 -21 51 -59 60 -16 3 -37 15
-47 26 -9 10 -23 19 -31 19 -18 0 -16 11 8 40 l21 25 -17 -30 c-18 -30 -18
-30 2 -12 19 17 21 16 61 -13 23 -17 42 -27 42 -23 0 5 6 1 13 -8 13 -16 52
-35 43 -20 -3 5 1 12 10 15 13 5 15 18 9 85 -6 71 -5 80 12 84 29 7 38 2 37
-24z"/>
<path d="M5630 1526 c0 -2 7 -7 16 -10 8 -3 12 -2 9 4 -6 10 -25 14 -25 6z"/>
<path d="M2855 1010 c-3 -5 -1 -10 4 -10 6 0 11 5 11 10 0 6 -2 10 -4 10 -3 0
-8 -4 -11 -10z"/>
<path d="M200 648 l0 -338 265 0 264 0 17 33 c9 17 30 51 46 75 l29 42 -226 0
-225 0 0 60 0 60 138 0 137 1 42 69 42 70 -180 0 -179 0 0 58 0 57 177 -3 178
-3 22 38 c12 21 33 56 47 78 l24 40 -309 0 -309 0 0 -337z m543 306 c12 -4 13
-11 5 -35 -18 -51 -38 -57 -193 -55 -175 3 -188 1 -208 -34 -23 -39 -12 -140
14 -125 5 4 9 1 9 -5 0 -8 40 -11 138 -10 193 3 177 7 146 -40 l-27 -40 -118
0 c-66 0 -120 1 -121 2 -2 1 -14 -8 -28 -19 -22 -20 -25 -28 -22 -83 3 -48 8
-62 24 -71 13 -7 90 -11 210 -10 l189 1 -16 -30 c-8 -16 -15 -33 -14 -36 3
-19 -47 -24 -263 -24 -213 0 -237 2 -240 17 -2 9 -2 146 0 304 l3 289 247 3
c136 1 248 3 249 5 1 1 8 -1 16 -4z"/>
<path d="M725 909 c-4 -6 -5 -12 -2 -15 2 -3 7 2 10 11 7 17 1 20 -8 4z"/>
<path d="M884 981 c-2 -2 -4 -154 -4 -338 l0 -333 85 0 85 0 0 205 c0 186 -6
235 -24 189 -3 -9 -6 -94 -6 -190 l0 -174 -50 0 c-27 0 -50 3 -50 8 0 4 -2
139 -4 300 -4 334 -10 313 82 302 37 -4 47 -9 46 -22 -1 -10 1 -16 5 -15 3 2
19 -9 34 -25 15 -15 26 -28 23 -28 -3 0 5 -11 17 -24 12 -13 33 -39 47 -56 14
-18 34 -41 44 -51 11 -11 16 -19 10 -19 -5 0 -1 -5 9 -11 9 -5 17 -17 17 -25
0 -8 4 -13 9 -10 4 3 13 -6 19 -19 7 -14 16 -25 22 -25 6 0 8 -4 5 -10 -3 -5
-2 -10 4 -10 6 0 8 -8 4 -17 -3 -10 -2 -15 2 -10 5 4 16 0 25 -8 15 -14 19
-13 36 6 17 19 19 38 19 203 l0 181 25 -1 c14 -2 37 -3 52 -3 l27 -1 3 -305 3
-305 -53 0 c-33 0 -51 4 -47 10 3 5 0 8 -7 5 -24 -9 -138 122 -130 149 2 5 -4
6 -12 3 -9 -4 -15 -2 -13 2 1 5 -10 23 -25 40 -16 17 -28 36 -28 42 0 5 -4 7
-10 4 -5 -3 -10 0 -10 7 -1 23 -101 138 -121 138 -13 0 -3 -14 184 -252 l138
-178 82 0 82 0 -2 336 -2 336 -83 0 -83 0 0 -201 c0 -111 -2 -201 -5 -201 -3
0 -11 9 -17 20 -7 10 -76 100 -153 199 l-140 179 -81 4 c-44 2 -83 1 -85 -1z"/>
<path d="M1620 648 l0 -338 251 0 252 0 73 66 74 66 0 203 0 203 -72 67 -73
67 -252 2 -253 1 0 -337z m543 262 c23 -22 49 -47 57 -55 11 -12 14 -51 12
-211 l-2 -197 -39 -37 c-75 -72 -61 -69 -312 -70 l-229 -1 0 305 c0 195 4 306
10 308 6 2 112 2 236 1 l225 -2 42 -41z"/>
<path d="M1856 862 c-39 -2 -74 -9 -81 -16 -16 -16 -21 -349 -6 -389 l11 -27
136 0 c119 0 139 2 164 20 15 11 30 17 33 13 4 -3 5 4 2 15 -2 12 0 24 5 27 4
3 9 63 9 134 2 116 0 132 -20 166 -34 57 -68 65 -253 57z m217 -57 c27 -26 27
-27 27 -158 0 -128 0 -131 -27 -159 -27 -28 -28 -28 -155 -28 l-128 0 0 188 0
187 127 -2 c124 -1 129 -2 156 -28z"/>
<path d="M2350 648 l0 -338 85 0 85 0 0 105 0 105 154 0 153 0 62 58 61 57 1
114 1 113 -59 59 -59 59 -242 3 -242 2 0 -337z m500 279 c17 -14 30 -29 30
-32 -1 -4 10 -15 24 -26 25 -19 26 -24 21 -102 -3 -45 -5 -84 -6 -87 -3 -13
-6 -26 -7 -37 -1 -7 -19 -24 -39 -38 -21 -14 -34 -25 -29 -25 5 0 3 -6 -3 -14
-9 -11 -46 -14 -162 -15 -151 -2 -183 -6 -173 -22 3 -5 1 -9 -4 -9 -5 0 -9
-35 -10 -77 0 -43 -1 -84 -1 -90 -1 -9 -18 -13 -53 -13 l-53 0 -2 305 -2 305
172 3 c251 5 260 4 297 -26z"/>
<path d="M2543 862 c-12 -2 -27 -10 -35 -19 -16 -19 -22 -173 -7 -173 6 0 8
-4 5 -8 -7 -12 6 -14 127 -17 60 -2 111 -6 114 -9 3 -3 19 9 34 25 25 26 29
39 29 86 0 98 -24 116 -155 118 -49 0 -100 -1 -112 -3z m229 -49 c24 -21 24
-99 1 -125 -14 -15 -32 -18 -135 -18 l-118 0 0 83 0 82 117 -3 c90 -3 122 -7
135 -19z"/>
<path d="M3825 930 l-81 -58 -2 -281 -2 -281 88 0 87 0 0 340 c0 187 -2 340
-5 340 -3 -1 -41 -27 -85 -60z m59 -285 c1 -151 -2 -275 -7 -275 -4 0 -6 -3
-6 -7 4 -22 -3 -31 -18 -28 -10 2 -31 4 -48 4 l-30 1 3 257 c2 228 5 259 20
273 29 26 77 59 81 54 2 -2 4 -127 5 -279z"/>
<path d="M4000 648 l0 -338 85 0 85 0 0 206 0 205 153 -192 c83 -105 157 -198
163 -205 8 -10 35 -14 88 -14 l76 0 0 338 0 337 -81 -2 -81 -1 2 -203 c0 -112
-3 -200 -7 -195 -4 4 -78 95 -163 203 l-155 195 -83 1 -82 2 0 -337z m163 289
c10 -10 16 -26 13 -34 -6 -14 -4 -14 11 -2 9 8 14 9 10 2 -4 -7 2 -18 15 -27
12 -9 19 -16 15 -16 -4 0 2 -11 15 -25 52 -56 93 -108 93 -119 1 -6 7 -10 14
-8 7 1 10 -2 7 -7 -3 -5 6 -22 22 -39 15 -16 38 -44 52 -60 14 -17 31 -31 38
-32 8 0 10 -5 6 -12 -4 -7 4 -3 17 10 24 22 24 26 24 205 l0 182 53 -3 52 -4
0 -303 0 -303 -52 -4 c-47 -3 -53 -1 -84 32 -18 19 -43 49 -56 67 -49 68 -107
139 -134 166 -15 16 -29 35 -30 42 -2 14 -83 95 -95 95 -20 0 -29 -66 -29
-225 l0 -175 -52 0 -53 0 1 183 c1 100 2 238 3 307 l1 125 52 0 c38 0 58 -5
71 -18z"/>
<path d="M4724 981 c-2 -2 -4 -38 -4 -78 l0 -74 105 3 105 3 2 -308 3 -308 83
62 82 61 0 247 0 246 93 -3 94 -3 44 73 c24 40 45 75 47 78 3 6 -648 7 -654 1z
m589 -42 c2 -8 -5 -27 -17 -42 -19 -23 -30 -27 -114 -33 -71 -5 -95 -11 -102
-24 -5 -9 -9 -119 -10 -246 -2 -268 -2 -253 -9 -251 -3 1 -23 -11 -44 -27 -21
-16 -40 -27 -42 -24 -3 2 -7 125 -10 273 -6 314 0 299 -120 302 -38 0 -73 1
-77 2 -5 1 -8 19 -8 40 0 29 4 40 17 43 9 2 133 3 274 3 225 0 259 -2 262 -16z"/>
<path d="M3098 915 l-68 -65 0 -203 0 -204 69 -66 69 -67 172 0 173 0 73 66
74 66 0 203 0 203 -71 66 -71 66 -177 0 -176 -1 -67 -64z m469 -21 l57 -58 1
-190 c1 -173 -1 -192 -17 -204 -10 -7 -18 -21 -18 -30 0 -15 -2 -15 -10 -2 -5
8 -10 10 -10 4 0 -5 -14 -25 -31 -42 l-31 -32 -162 0 c-152 0 -163 1 -190 22
-41 33 -81 71 -85 83 -2 6 -6 9 -9 8 -4 -1 -6 85 -5 190 l2 192 63 60 63 60
163 -2 162 -1 57 -58z"/>
<path d="M3252 858 c-5 -5 -18 -11 -28 -12 -11 -2 -17 -6 -14 -9 3 -4 -5 -14
-17 -22 -22 -16 -23 -22 -23 -163 0 -145 0 -148 26 -175 36 -39 63 -47 157
-47 66 0 86 4 112 21 48 33 55 60 55 199 0 132 -3 143 -54 194 -18 18 -34 21
-113 22 -51 0 -96 -3 -101 -8z m216 -50 c21 -20 22 -29 22 -160 l0 -139 -27
-24 c-25 -22 -37 -24 -120 -25 -81 0 -95 3 -117 23 -25 21 -26 26 -27 160 -1
136 -1 139 24 165 25 26 29 27 124 24 83 -3 101 -7 121 -24z"/>
<path d="M5403 787 l-53 -32 0 -222 0 -223 86 0 85 0 -2 146 -2 146 37 36 c35
35 39 37 106 37 l70 0 0 73 0 72 -71 0 c-70 0 -72 -1 -110 -39 l-39 -39 0 39
c0 36 -2 39 -27 38 -16 0 -52 -15 -80 -32z m281 7 c11 -4 16 -19 16 -45 l0
-39 -47 0 c-56 -1 -114 -35 -150 -89 -20 -30 -22 -45 -21 -147 0 -63 -2 -117
-6 -121 -3 -4 -27 -8 -51 -11 l-45 -3 -1 178 c0 98 -2 186 -4 196 -2 12 5 22
21 29 13 6 24 15 24 19 0 4 13 12 30 17 16 6 29 8 29 4 -3 -17 2 -30 19 -48
17 -19 48 -32 38 -16 -3 5 10 23 29 41 19 17 35 30 35 28 0 -4 59 7 67 12 1 1
8 -2 17 -5z"/>
<path d="M746 787 c3 -10 9 -15 12 -12 3 3 0 11 -7 18 -10 9 -11 8 -5 -6z"/>
</g>
</svg>
