<svg xmlns="http://www.w3.org/2000/svg" version="1.0" viewBox="0 0 1871 327"><path d="m645.3 73.6-24 18.7-9.3 35.1c-5.1 19.3-9.6 35.7-9.9 36.3-.4.7-12.2-20.1-26.5-46.7l-25.8-48-16.6.2-16.5.3-4.2 16C499.4 134.3 474 230.7 474 231.3c0 .4 8.7.7 19.3.7h19.4l1-4.2c2.1-8.8 23.3-88.7 24.1-90.9 1-2.6-.1-4.5 20.7 34.1 42 77.9 54.5 100.5 54.5 98.9 0-.7 9-34.7 36.9-139.4 11-41.2 19.8-75.1 19.7-75.2-.2-.2-11.1 8.1-24.3 18.3m575.2-12.9c-3.8 3-13.3 10.4-21 16.3-7.7 6-15.2 11.9-16.8 13.2-2.2 1.8-3.4 4.6-5.7 12.8-6.4 23.3-38 143.3-37.8 143.5s11.1-8.1 24.3-18.4l24-18.7 4.7-17.4c2.5-9.6 8.3-31.5 12.8-48.5 4.5-17.1 11.5-43.6 15.6-58.9s7.3-28.2 7.2-28.6c-.2-.5-3.4 1.7-7.3 4.7m153.8 12.9-24 18.6-3.2 12.1c-10.5 41-15.4 59.3-16 59.9-.3.4-6.4-10.2-13.6-23.5-7.1-13.3-18.6-34.8-25.6-47.7l-12.7-23.5-16.5-.3c-15.1-.2-16.6-.1-17.1 1.5-.5 1.7-21.4 80.9-35.2 133.7-3.6 13.7-6.8 25.5-7.1 26.2-.4 1.2 3 1.4 19 1.4 17.8 0 19.6-.2 20.1-1.8.3-.9 6-22.7 12.7-48.5 6.8-25.7 12.5-46.7 12.8-46.7.3.1 5.4 9.2 11.3 20.3 9.6 17.9 49.6 91.6 59.1 108.7 2.3 4 3.8 5.9 4.1 5 .3-.8 3.7-13.7 7.6-28.5 8.2-31.2 22.3-84.3 38-143.4 6-22.8 10.8-41.6 10.6-41.8s-11.1 8-24.3 18.3M353.2 85.3c-2.3 8.9-4.2 16.8-4.2 17.5 0 1 14.4 1.2 70.2 1l70.1-.3 4.3-16.5c2.4-9.1 4.4-16.8 4.4-17.3 0-.4-31.6-.7-70.2-.7h-70.3zm329.7.9-4.5 17.3 54 .5c37.1.3 54 .8 53.9 1.6-.1.5-5 19.7-10.8 42.5l-10.6 41.4-3.7 3.2-3.7 3.3h-32.4c-30.3 0-32.3-.1-31.8-1.8.2-.9 4.1-15.7 8.7-32.7 4.5-17.1 9-34 10-37.8l1.9-6.7-19.6.2-19.6.3L668 143c-3.7 14-10.4 39.4-14.9 56.3-4.4 16.9-8.1 31.2-8.1 31.7 0 .6 21.8 1 59.8 1h59.9l16.9-13c9.3-7.1 17.2-13.8 17.6-14.7.5-1 6-21.6 12.3-45.8 6.4-24.2 12.8-48.4 14.2-53.7l2.6-9.6-9.3-13.1-9.3-13.1H687.4zM856 69.4c0 .5-7.6 29.5-8.6 32.8-.5 1.6 2.8 1.8 51.5 2 28.5.2 52.2.6 52.6.9.3.4-1.3 7.8-3.6 16.5-3.8 14.8-4.3 16.1-7.7 19.1l-3.7 3.3h-30.2c-25 0-30.3-.2-30.3-1.4 0-.7 1.3-6.5 3-12.7 1.6-6.3 3-11.7 3-12.2 0-.4-8.7-.7-19.3-.7h-19.2l-16.8 64.1c-9.3 35.2-16.6 64.3-16.3 64.6.2.3 11.2-7.7 24.2-17.8 20.8-16.1 23.9-18.8 24.7-21.9.4-1.9 2.2-8.8 3.9-15.3l3.1-11.7h77.8l16.3-12.4c8.9-6.8 16.7-13 17.2-13.8 1.1-1.4 15.4-54.4 15.4-57.1 0-.8-4-7.1-8.8-13.9l-8.8-12.3-59.7-.3c-32.8-.1-59.7 0-59.7.2m172.1 12.9c-16.3 12.4-17.5 13.5-18.7 17.7-8.1 29-27.5 104.5-27.1 105.9.2.9 4.4 7.2 9.2 13.9l8.8 12.2h93.8l14.9-11.4c8.2-6.3 16-12.2 17.3-13.1 2-1.3 3.1-4.1 6.1-15.8 2-7.9 8.4-32.1 14.1-53.8 5.8-21.7 10.6-40.2 10.8-41.2.1-.9-3.8-7.6-8.8-14.7l-9-12.9-47-.1h-47zm87.9 22.9c0 1.5-21.8 84.9-22.2 85.2-.2.1-1.8 1.4-3.6 2.9l-3.4 2.7h-31.9c-17.5 0-31.9-.3-31.9-.6s2.7-10.6 5.9-22.8c3.3-12.1 8.3-31.1 11.1-42.1l5.2-20 4.2-3.2 4.1-3.3h31.3c24.3 0 31.2.3 31.2 1.2m293.1-32.5c-5.2 19.5-8.1 30.5-8.1 30.9 0 .2 10.6.4 23.5.4 18.4 0 23.5.3 23.5 1.3 0 .7-8.3 32.5-18.5 70.7s-18.5 69.7-18.5 70.2c0 .7 11.5-8 40.5-30.6l8-6.2 13.4-50.5c7.4-27.7 13.8-51.4 14.2-52.7.8-2.1 1.2-2.2 15.2-2.2h14.4l13-11.8c7.1-6.4 15.8-14.3 19.3-17.4l6.5-5.8h-145.4zM344.5 118.2c-.4 1.2-14.1 52.9-25.4 95.9-2.3 8.6-4.1 16.1-4.1 16.7 0 .9 17.8 1.2 70.5 1.2 38.8 0 70.5-.1 70.5-.3 0-.1 2-7.9 4.5-17.2 2.4-9.4 4.1-17.3 3.6-17.8-.4-.4-23.3-.6-50.9-.5-30 .2-50.2-.1-50.2-.6 0-1 5.5-22.3 7.1-27.4l1.1-3.2h54.4l18.1-15.8c10-8.6 18.2-16 18.2-16.5.1-.4-18.3-.7-40.9-.7-33.6 0-41-.2-41-1.3 0-.8.7-3.6 1.5-6.3s1.5-5.5 1.5-6.2c0-.9-4.5-1.2-19-1.2-14.3 0-19.2.3-19.5 1.2"/><path d="M1532.4 145.4c-2.8 1.3-6.8 3.9-8.9 5.7l-3.8 3.4.7-3.8c.4-2.1 1-4.5 1.3-5.3.4-1.2-1.6-1.4-12.4-1.4h-12.8l-4.4 16.7c-2.4 9.3-7.5 28.4-11.2 42.6-3.8 14.2-6.9 26.4-6.9 27.2 0 1.2 2.2 1.5 13 1.5 7.2 0 13-.2 13-.4 0-.5 11.4-43.4 13.6-51.4 1.3-4.6 2.1-5.7 6.1-8.2 4.5-2.9 5.1-3 16.5-3h11.7l1.1-4.3c.6-2.3 2-7.4 3.1-11.3 2.9-10.8 3.2-10.4-6.3-10.4-6.6 0-9.3.5-13.4 2.4"/></svg>